<?xml version="1.0" standalone="no"?>
<!DOCTYPE svg PUBLIC "-//W3C//DTD SVG 20010904//EN"
 "http://www.w3.org/TR/2001/REC-SVG-20010904/DTD/svg10.dtd">
<svg version="1.0" xmlns="http://www.w3.org/2000/svg"
 width="689.000000pt" height="692.000000pt" viewBox="0 0 689.000000 692.000000"
 preserveAspectRatio="xMidYMid meet">

<g transform="translate(0.000000,692.000000) scale(0.100000,-0.100000)"
fill="#000000" stroke="none">
<path d="M3065 6329 c-210 -21 -386 -138 -469 -312 -61 -126 -96 -296 -111
-530 l-7 -108 -88 85 c-112 108 -172 140 -260 140 -54 1 -74 -4 -119 -29 -113
-63 -218 -214 -262 -380 -18 -66 -23 -118 -26 -297 l-5 -218 -42 0 c-116 0
-340 -44 -494 -96 -162 -55 -436 -205 -572 -313 -16 -13 56 8 210 59 360 120
671 190 847 190 l70 0 32 -237 c47 -348 98 -539 200 -741 l42 -83 -114 -202
c-133 -234 -176 -319 -244 -477 -52 -118 -121 -319 -147 -425 -82 -337 -6
-576 222 -690 179 -90 593 -41 916 108 42 20 76 31 76 25 0 -6 -14 -56 -31
-112 -38 -122 -36 -187 8 -274 47 -95 106 -122 269 -122 175 0 258 22 508 134
94 42 175 76 182 76 7 0 171 -190 365 -423 193 -232 361 -431 372 -442 20 -20
20 -19 0 15 -412 703 -563 961 -563 964 0 2 62 52 138 112 221 175 324 282
473 490 71 100 135 186 142 192 7 6 178 12 442 15 378 4 445 7 550 26 238 42
524 153 619 241 121 112 149 307 70 487 -33 74 -116 200 -185 280 -33 39 -132
123 -258 218 l-203 155 68 0 c175 1 314 63 366 164 17 31 22 58 22 114 -1 66
-5 81 -47 166 -34 67 -67 115 -118 170 -100 107 -237 222 -357 300 l-102 66
16 37 c283 660 487 1199 471 1245 -2 7 -16 -12 -32 -42 -93 -183 -609 -1167
-615 -1174 -5 -5 -75 16 -162 48 -240 89 -341 114 -603 151 -132 19 -243 35
-248 35 -4 0 -13 12 -19 28 -22 52 -404 654 -482 760 -156 211 -344 371 -485
411 -82 24 -136 29 -226 20z m369 -623 c170 -76 330 -246 460 -488 l47 -86
-88 -6 c-144 -10 -273 -26 -358 -46 -114 -27 -340 -106 -564 -198 -12 -4 -13
16 -8 134 10 221 48 389 120 529 52 101 89 142 152 172 65 31 153 27 239 -11z
m-1046 -493 c61 -45 63 -53 78 -293 7 -123 12 -226 10 -229 -5 -8 -422 5 -436
14 -14 8 -13 210 1 277 35 165 140 263 272 254 28 -2 60 -11 75 -23z m1548
-279 c170 -12 581 -101 809 -175 126 -41 310 -120 364 -158 15 -10 -6 -40
-167 -244 l-53 -67 -117 118 c-110 112 -214 198 -307 253 l-40 23 35 -41 c19
-22 70 -81 112 -130 86 -100 198 -252 198 -269 0 -7 -52 4 -132 26 -206 58
-517 129 -1073 245 -280 58 -518 109 -527 111 -16 5 -18 -5 -18 -119 l0 -124
493 -127 c270 -71 533 -143 582 -161 249 -90 541 -221 734 -329 80 -45 101
-61 96 -74 -4 -10 -31 -89 -62 -177 -124 -363 -275 -705 -380 -865 -149 -226
-428 -497 -712 -693 -46 -32 -88 -56 -93 -55 -5 2 -42 72 -83 155 l-73 152 56
27 c44 20 300 121 422 167 10 4 8 6 -7 6 -20 1 -300 -23 -395 -33 -21 -2 -38
-1 -38 2 1 4 31 30 67 57 192 144 590 571 1046 1120 l116 140 -122 62 -122 61
-320 -317 c-414 -410 -520 -506 -732 -659 -124 -90 -434 -299 -456 -308 -25
-9 -426 466 -544 644 -115 175 -258 478 -331 702 -28 88 -130 615 -120 625 5
5 398 -22 404 -27 2 -3 -5 -45 -16 -94 -10 -49 -28 -154 -39 -234 -33 -232
-34 -246 -6 -147 14 49 38 122 55 164 32 79 109 205 121 198 4 -3 10 -26 14
-52 11 -81 120 -496 189 -725 66 -220 224 -706 278 -855 l30 -83 106 75 c75
52 106 79 105 92 -1 10 -70 286 -153 613 -83 327 -157 631 -165 675 -18 105
-35 333 -38 519 l-2 148 110 40 c207 74 382 113 575 128 102 7 167 6 326 -6z
m1448 -491 c144 -95 236 -212 257 -326 15 -84 -36 -154 -128 -176 l-49 -12
-199 86 c-110 48 -203 89 -207 91 -8 5 234 384 246 384 4 0 40 -21 80 -47z
m-216 -907 c274 -214 447 -468 411 -600 -30 -107 -185 -194 -434 -245 -99 -20
-296 -41 -388 -41 l-47 0 54 108 c148 295 244 576 281 820 4 23 9 42 12 42 2
0 53 -38 111 -84z m-2917 -443 c214 -347 404 -597 507 -665 22 -15 20 -16 -75
-56 -204 -84 -358 -119 -476 -108 -118 11 -183 52 -235 151 -23 43 -27 61 -26
135 1 83 3 91 93 320 51 129 102 259 113 288 11 28 21 52 23 52 2 0 36 -53 76
-117z m1146 -1108 c62 -110 109 -202 105 -206 -11 -10 -200 -77 -267 -94 -74
-19 -205 -20 -249 -1 -62 26 -96 96 -82 170 13 67 64 122 216 231 80 57 149
103 154 101 6 -1 61 -92 123 -201z"/>
</g>
</svg>
